<mxfile host="app.diagrams.net" agent="Mozilla/5.0 (Macintosh; Intel Mac OS X 10_15_7) AppleWebKit/605.1.15 (KHTML, like Gecko) Version/18.0.1 Safari/605.1.15" version="24.8.3">
  <diagram name="Page-1" id="Deh1kHdlX-NCkyrFOUpE">
    <mxGraphModel dx="1434" dy="827" grid="1" gridSize="10" guides="1" tooltips="1" connect="1" arrows="1" fold="1" page="1" pageScale="1" pageWidth="850" pageHeight="1100" math="0" shadow="0">
      <root>
        <mxCell id="0" />
        <mxCell id="1" parent="0" />
        <mxCell id="viORDsBTmoMo4qrAieO0-12" style="rounded=0;orthogonalLoop=1;jettySize=auto;html=1;exitX=1;exitY=0.25;exitDx=0;exitDy=0;entryX=0;entryY=0.5;entryDx=0;entryDy=0;" edge="1" parent="1" source="viORDsBTmoMo4qrAieO0-1" target="viORDsBTmoMo4qrAieO0-7">
          <mxGeometry relative="1" as="geometry" />
        </mxCell>
        <mxCell id="viORDsBTmoMo4qrAieO0-13" style="rounded=0;orthogonalLoop=1;jettySize=auto;html=1;exitX=1;exitY=0.5;exitDx=0;exitDy=0;entryX=0;entryY=0.5;entryDx=0;entryDy=0;" edge="1" parent="1" source="viORDsBTmoMo4qrAieO0-1" target="viORDsBTmoMo4qrAieO0-9">
          <mxGeometry relative="1" as="geometry" />
        </mxCell>
        <mxCell id="viORDsBTmoMo4qrAieO0-14" style="rounded=0;orthogonalLoop=1;jettySize=auto;html=1;exitX=1;exitY=0.75;exitDx=0;exitDy=0;entryX=0;entryY=0.5;entryDx=0;entryDy=0;" edge="1" parent="1" source="viORDsBTmoMo4qrAieO0-1" target="viORDsBTmoMo4qrAieO0-10">
          <mxGeometry relative="1" as="geometry" />
        </mxCell>
        <mxCell id="viORDsBTmoMo4qrAieO0-1" value="Route 1&lt;div&gt;Route 2&lt;/div&gt;&lt;div&gt;Route 3&lt;/div&gt;" style="whiteSpace=wrap;html=1;aspect=fixed;align=center;spacingLeft=0;fillColor=#fff2cc;strokeColor=#d6b656;" vertex="1" parent="1">
          <mxGeometry x="130" y="350" width="60" height="60" as="geometry" />
        </mxCell>
        <mxCell id="viORDsBTmoMo4qrAieO0-15" style="rounded=0;orthogonalLoop=1;jettySize=auto;html=1;exitX=1;exitY=0.5;exitDx=0;exitDy=0;entryX=0;entryY=0.25;entryDx=0;entryDy=0;" edge="1" parent="1" source="viORDsBTmoMo4qrAieO0-7" target="viORDsBTmoMo4qrAieO0-11">
          <mxGeometry relative="1" as="geometry" />
        </mxCell>
        <mxCell id="viORDsBTmoMo4qrAieO0-7" value="Climber 17&lt;div&gt;Thomas Anderson&lt;/div&gt;&lt;div&gt;Climber 17&lt;/div&gt;&lt;div&gt;Climber 33&lt;/div&gt;" style="whiteSpace=wrap;html=1;align=left;spacingLeft=5;spacingTop=0;spacing=4;fillColor=#e1d5e7;strokeColor=#9673a6;" vertex="1" parent="1">
          <mxGeometry x="270" y="270" width="120" height="70" as="geometry" />
        </mxCell>
        <mxCell id="viORDsBTmoMo4qrAieO0-16" style="rounded=0;orthogonalLoop=1;jettySize=auto;html=1;exitX=1;exitY=0.5;exitDx=0;exitDy=0;entryX=0;entryY=0.5;entryDx=0;entryDy=0;" edge="1" parent="1" source="viORDsBTmoMo4qrAieO0-9" target="viORDsBTmoMo4qrAieO0-11">
          <mxGeometry relative="1" as="geometry" />
        </mxCell>
        <mxCell id="viORDsBTmoMo4qrAieO0-9" value="Climber 84&lt;div&gt;Climber 17&lt;/div&gt;&lt;div style=&quot;&quot;&gt;Thomas Anderson&lt;/div&gt;" style="whiteSpace=wrap;html=1;align=left;spacingLeft=5;fillColor=#d5e8d4;strokeColor=#82b366;" vertex="1" parent="1">
          <mxGeometry x="270" y="350" width="120" height="60" as="geometry" />
        </mxCell>
        <mxCell id="viORDsBTmoMo4qrAieO0-17" style="rounded=0;orthogonalLoop=1;jettySize=auto;html=1;exitX=1;exitY=0.5;exitDx=0;exitDy=0;entryX=0;entryY=0.75;entryDx=0;entryDy=0;" edge="1" parent="1" source="viORDsBTmoMo4qrAieO0-10" target="viORDsBTmoMo4qrAieO0-11">
          <mxGeometry relative="1" as="geometry" />
        </mxCell>
        <mxCell id="viORDsBTmoMo4qrAieO0-10" value="Climber 33&lt;div&gt;Thomas Anderson&lt;/div&gt;&lt;div&gt;Climber 91&lt;/div&gt;" style="whiteSpace=wrap;html=1;align=left;spacingLeft=5;fillColor=#f8cecc;strokeColor=#b85450;" vertex="1" parent="1">
          <mxGeometry x="270" y="420" width="120" height="60" as="geometry" />
        </mxCell>
        <mxCell id="viORDsBTmoMo4qrAieO0-11" value="Thomas Anderson, &amp;nbsp;3, 100%&lt;div&gt;Climber 33, &lt;span style=&quot;white-space: pre;&quot;&gt;&#x9;&lt;/span&gt;&lt;span style=&quot;white-space: pre;&quot;&gt;&#x9;&lt;/span&gt;2, 66.6%&lt;/div&gt;&lt;div&gt;Climber 17, &lt;span style=&quot;white-space: pre;&quot;&gt;&#x9;&lt;/span&gt;&lt;span style=&quot;white-space: pre;&quot;&gt;&#x9;&lt;/span&gt;2, 66.6%&lt;/div&gt;&lt;div&gt;Climber 84, &lt;span style=&quot;white-space: pre;&quot;&gt;&#x9;&lt;/span&gt;&lt;span style=&quot;white-space: pre;&quot;&gt;&#x9;&lt;/span&gt;1, 33.3%&lt;/div&gt;&lt;div&gt;Climber 91, &lt;span style=&quot;white-space: pre;&quot;&gt;&#x9;&lt;/span&gt;&lt;span style=&quot;white-space: pre;&quot;&gt;&#x9;&lt;/span&gt;1, 33.3%&lt;/div&gt;" style="rounded=0;whiteSpace=wrap;html=1;align=left;spacingLeft=5;fillColor=#dae8fc;strokeColor=#6c8ebf;" vertex="1" parent="1">
          <mxGeometry x="470" y="335" width="170" height="90" as="geometry" />
        </mxCell>
      </root>
    </mxGraphModel>
  </diagram>
</mxfile>
